<?xml version="1.0" encoding="UTF-8" standalone="no"?>
<svg
   xmlns:dc="http://purl.org/dc/elements/1.1/"
   xmlns:cc="http://creativecommons.org/ns#"
   xmlns:rdf="http://www.w3.org/1999/02/22-rdf-syntax-ns#"
   xmlns:svg="http://www.w3.org/2000/svg"
   xmlns="http://www.w3.org/2000/svg"
   xmlns:sodipodi="http://sodipodi.sourceforge.net/DTD/sodipodi-0.dtd"
   xmlns:inkscape="http://www.inkscape.org/namespaces/inkscape"
   width="1000"
   height="1000"
   viewBox="0 0 264.58333 264.58334"
   version="1.1"
   id="svg8"
   inkscape:export-filename="F:\ConsoleApp30\sysmanagericonbigt.png"
   inkscape:export-xdpi="96"
   inkscape:export-ydpi="96"
   inkscape:version="1.0.2 (e86c870879, 2021-01-15, custom)"
   sodipodi:docname="SYSMAN.svg">
  <defs
     id="defs2" />
  <sodipodi:namedview
     id="base"
     pagecolor="#ffffff"
     bordercolor="#666666"
     borderopacity="1.0"
     inkscape:pageopacity="0.0"
     inkscape:pageshadow="2"
     inkscape:zoom="0.49497475"
     inkscape:cx="328.03195"
     inkscape:cy="363.58947"
     inkscape:document-units="mm"
     inkscape:current-layer="layer1"
     inkscape:document-rotation="0"
     showgrid="false"
     units="px"
     inkscape:window-width="1500"
     inkscape:window-height="1040"
     inkscape:window-x="182"
     inkscape:window-y="0"
     inkscape:window-maximized="0" />
  <metadata
     id="metadata5">
    <rdf:RDF>
      <cc:Work
         rdf:about="">
        <dc:format>image/svg+xml</dc:format>
        <dc:type
           rdf:resource="http://purl.org/dc/dcmitype/StillImage" />
        <dc:title></dc:title>
      </cc:Work>
    </rdf:RDF>
  </metadata>
  <g
     inkscape:label="Слой 1"
     inkscape:groupmode="layer"
     id="layer1">
    <path
       style="fill:#ff0000;stroke-width:0.282388"
       d="m 128.00811,159.95011 c -3.7211,-0.43422 -8.3284,-1.46246 -12.07012,-2.69373 -29.732846,-9.78407 -46.948044,-40.99232 -39.38973,-71.406946 5.567511,-22.403637 23.75852,-39.773817 46.42263,-44.327905 14.93014,-3.000036 30.49957,-0.241961 43.2873,7.66821 15.85658,9.808475 25.99207,25.987714 28.17474,44.97516 0.46703,4.062898 0.19698,12.187571 -0.54442,16.378561 -2.57097,14.5332 -10.26027,27.48392 -21.78197,36.68634 -8.52203,6.80659 -18.89156,11.19582 -29.73589,12.58667 -3.49734,0.44855 -11.0609,0.51893 -14.36254,0.13364 z m 11.27467,-15.12031 c 10.32141,-1.19658 18.45012,-4.93993 25.29545,-11.64882 8.56321,-8.39252 12.94967,-18.58987 12.95668,-30.12083 0.004,-7.119644 -1.37353,-13.218623 -4.30967,-19.076286 -3.54137,-7.065117 -10.5022,-14.434061 -16.76043,-17.743053 -2.93256,-1.550578 -5.8217,-1.067221 -7.77503,1.300757 -1.43854,1.743919 -1.81439,3.985839 -0.99639,5.94357 0.6107,1.46163 1.31055,2.141455 4.22235,4.10163 6.53265,4.397645 11.12551,11.122796 12.90398,18.894804 0.89354,3.904798 0.83704,9.556698 -0.13231,13.235548 -0.98571,3.74092 -2.17455,6.46567 -4.16176,9.53856 -4.33216,6.69894 -11.2656,11.40001 -19.24684,13.04993 -2.45274,0.50705 -3.54777,0.5804 -6.87117,0.46032 -8.02457,-0.28994 -14.24691,-2.86106 -19.81295,-8.18687 -8.17649,-7.8236 -11.37889,-19.93095 -8.0819,-30.555354 2.091,-6.738161 6.57061,-12.623884 12.7276,-16.722653 2.73023,-1.817542 3.59508,-2.836511 4.03654,-4.75583 0.83175,-3.616213 -2.07521,-7.194494 -5.83118,-7.17777 -1.67189,0.0075 -3.02881,0.590012 -5.92274,2.542812 -9.00675,6.077687 -15.213379,15.45779 -17.697598,26.746412 -0.821241,3.731833 -0.894843,11.960833 -0.140249,15.680613 2.079181,10.24933 8.321917,20.35816 16.274797,26.35371 2.79573,2.10766 8.06918,4.81309 11.74018,6.02305 3.50843,1.15637 9.13535,2.23217 13.21518,2.52659 0.27923,0.0202 2.24458,-0.16473 4.36746,-0.41084 z m -0.86765,-41.22162 c 0.67615,-0.39625 1.57595,-1.24423 1.9996,-1.88441 l 0.77024,-1.16396 V 77.948122 55.336445 l -0.61874,-1.156292 c -0.82054,-1.533419 -2.37965,-2.866026 -3.62692,-3.100016 -2.99474,-0.561815 -5.6062,0.620829 -6.89327,3.121732 l -0.7214,1.401756 v 22.175128 c 0,21.107256 0.0254,22.222717 0.52721,23.163477 1.81344,3.39964 5.40395,4.51745 8.56328,2.66595 z"
       id="path863" />
    <text
       xml:space="preserve"
       style="font-size:10.5833px;line-height:1.25;font-family:'Franklin Gothic Medium Cond';-inkscape-font-specification:'Franklin Gothic Medium Cond';stroke-width:0.264583"
       x="30.994047"
       y="186.72025"
       id="text867"><tspan
         sodipodi:role="line"
         id="tspan865"
         x="30.994047"
         y="186.72025"
         style="stroke-width:0.264583" /></text>
    <rect
       style="fill:#f9f9f9;stroke:#ffffff;stroke-width:0.264583"
       id="rect869"
       width="224.50639"
       height="48.108513"
       x="26.726954"
       y="165.17255" />
    <text
       xml:space="preserve"
       style="font-size:23.9713px;line-height:1.25;font-family:'Franklin Gothic Medium Cond';-inkscape-font-specification:'Franklin Gothic Medium Cond';stroke-width:0.599283"
       x="55.812824"
       y="199.38246"
       id="text873"><tspan
         sodipodi:role="line"
         id="tspan871"
         x="55.812824"
         y="199.38246"
         style="stroke-width:0.599283">SYSTEM MANAGER</tspan></text>
  </g>
</svg>
